<?xml version="1.0" encoding="UTF-8"?>
<!DOCTYPE svg PUBLIC "-//W3C//DTD SVG 1.1//EN" "http://www.w3.org/Graphics/SVG/1.1/DTD/svg11.dtd">
<svg xmlns="http://www.w3.org/2000/svg" version="1.1" width="546px" height="136px" style="shape-rendering:geometricPrecision; text-rendering:geometricPrecision; image-rendering:optimizeQuality; fill-rule:evenodd; clip-rule:evenodd" xmlns:xlink="http://www.w3.org/1999/xlink">
<g><path style="opacity:0.578" fill="#000000" d="M 92.5,51.5 C 94.5952,50.588 96.5952,49.4213 98.5,48C 99.2524,47.3292 99.5858,46.4959 99.5,45.5C 103.273,43.7788 106.939,41.7788 110.5,39.5C 120.768,36.1825 125.601,39.8491 125,50.5C 128.305,49.0278 130.805,46.6945 132.5,43.5C 120.699,40.0731 115.366,32.4065 116.5,20.5C 117.364,18.8035 118.697,17.6368 120.5,17C 137.799,15.1161 148.799,22.6161 153.5,39.5C 159.537,39.1707 165.537,39.5041 171.5,40.5C 173.18,41.7689 174.347,43.4356 175,45.5C 177.366,43.4919 179.699,41.4919 182,39.5C 183.826,38.3267 185.659,38.3267 187.5,39.5C 186.953,44.6711 185.953,49.6711 184.5,54.5C 185.675,54.719 186.675,54.3857 187.5,53.5C 194.054,44.5428 202.72,40.2094 213.5,40.5C 214.544,41.6226 215.21,42.9559 215.5,44.5C 211.689,54.3086 204.689,60.6419 194.5,63.5C 194.5,64.5 194.5,65.5 194.5,66.5C 199.321,65.6657 203.654,63.6657 207.5,60.5C 213.739,51.7595 221.406,44.5928 230.5,39C 229.446,37.6124 229.28,36.1124 230,34.5C 231.793,31.7047 233.96,29.2047 236.5,27C 240.361,26.2891 242.694,27.9557 243.5,32C 242.066,36.048 239.566,39.2146 236,41.5C 236.362,43.8734 235.695,46.2068 234,48.5C 223.365,59.7 215.198,72.3667 209.5,86.5C 207.621,86.3932 207.288,86.8932 208.5,88C 201.661,98.328 194.661,108.495 187.5,118.5C 185.259,119.567 183.426,121.234 182,123.5C 181.667,123.167 181.333,122.833 181,122.5C 175.2,125.851 171.7,124.185 170.5,117.5C 171.044,114.084 172.378,111.084 174.5,108.5C 175.496,108.586 176.329,108.252 177,107.5C 181.741,101.604 186.241,95.6045 190.5,89.5C 195.154,84.7529 199.487,79.5863 203.5,74C 200.001,75.7495 196.334,77.5828 192.5,79.5C 181.954,82.4484 177.621,78.6151 179.5,68C 177.167,67.6667 174.833,67.3333 172.5,67C 171.953,66.0754 171.287,65.2421 170.5,64.5C 167.5,69.1667 164.5,73.8333 161.5,78.5C 156.544,79.4941 151.544,79.8275 146.5,79.5C 146.215,77.712 146.548,76.0453 147.5,74.5C 153.2,67.1002 157.866,59.1002 161.5,50.5C 159.977,48.7175 157.977,48.0508 155.5,48.5C 155.662,50.5273 155.495,52.5273 155,54.5C 152.222,59.9093 149.389,65.2427 146.5,70.5C 141.9,75.634 136.233,78.9673 129.5,80.5C 126.366,79.759 123.366,78.759 120.5,77.5C 118.731,73.0075 118.231,68.3408 119,63.5C 120.338,62.7764 120.505,62.1098 119.5,61.5C 114.193,66.4721 108.86,71.4721 103.5,76.5C 98.2183,80.3734 92.5516,81.2068 86.5,79C 84.3641,76.5987 83.1974,73.7653 83,70.5C 79.4101,73.0454 75.9101,75.712 72.5,78.5C 63.0761,93.2006 51.7428,106.201 38.5,117.5C 30.7745,123.252 22.4412,124.586 13.5,121.5C 12.6532,119.971 11.9865,118.304 11.5,116.5C 12.3366,114.162 13.1699,111.828 14,109.5C 16.6872,105.32 19.8539,101.654 23.5,98.5C 27.1289,96.0423 30.6289,93.3757 34,90.5C 35.1068,91.7119 35.6068,91.3786 35.5,89.5C 41.3763,86.9415 46.7096,83.6081 51.5,79.5C 34.342,80.517 29.1753,73.1837 36,57.5C 41.2451,49.668 47.4117,42.668 54.5,36.5C 67.3048,26.2639 81.6382,18.9305 97.5,14.5C 103.14,13.7071 108.807,13.3738 114.5,13.5C 113.243,18.6801 110.91,23.3467 107.5,27.5C 94.3385,26.6428 82.3385,30.4761 71.5,39C 63.523,45.4782 57.3563,53.3115 53,62.5C 52.5065,64.1341 52.3398,65.8008 52.5,67.5C 56.2663,67.2847 59.5997,65.9513 62.5,63.5C 71.1412,55.8621 79.8078,48.1955 88.5,40.5C 91.7683,39.513 95.1016,39.1796 98.5,39.5C 97.0383,43.7568 95.0383,47.7568 92.5,51.5 Z M 133.5,26.5 C 136.263,26.7438 138.429,28.0771 140,30.5C 142.084,33.0025 143.917,35.6692 145.5,38.5C 145.167,38.8333 144.833,39.1667 144.5,39.5C 139.198,37.6384 134.364,34.9717 130,31.5C 128.69,29.8678 128.19,28.2012 128.5,26.5C 129.991,25.7564 131.491,25.0897 133,24.5C 133.464,25.0944 133.631,25.7611 133.5,26.5 Z M 92.5,51.5 C 92.2624,53.4044 91.2624,54.7377 89.5,55.5C 89.5544,53.368 90.5544,52.0347 92.5,51.5 Z M 145.5,52.5 C 144.062,58.7637 140.562,63.4303 135,66.5C 134.5,66.1667 134,65.8333 133.5,65.5C 135.84,59.4982 139.84,55.1648 145.5,52.5 Z M 107.5,54.5 C 108.622,56.2884 108.789,58.2884 108,60.5C 105.651,63.0168 103.151,65.3501 100.5,67.5C 100.911,62.3555 103.244,58.0222 107.5,54.5 Z M 89.5,55.5 C 89.1667,56.5 88.5,57.1667 87.5,57.5C 87.5,56.1667 88.1667,55.5 89.5,55.5 Z M 55.5,77.5 C 54.713,79.1042 53.3797,79.7709 51.5,79.5C 52.1834,77.8235 53.5168,77.1568 55.5,77.5 Z M 41.5,97.5 C 39.5437,102.113 36.5437,105.78 32.5,108.5C 32.5858,109.496 32.2524,110.329 31.5,111C 30.1279,111.402 28.7946,111.902 27.5,112.5C 27.1667,112.167 26.8333,111.833 26.5,111.5C 30.55,105.118 35.55,100.451 41.5,97.5 Z"/></g>
<g><path style="opacity:0.004" fill="#000000" d="M 187.5,38.5 C 188.833,39.1667 188.833,39.1667 187.5,38.5 Z"/></g>
<g><path style="opacity:0.492" fill="#000000" d="M 254.5,38.5 C 256.5,38.5 258.5,38.5 260.5,38.5C 260.5,55.8333 260.5,73.1667 260.5,90.5C 258.5,90.5 256.5,90.5 254.5,90.5C 254.5,73.1667 254.5,55.8333 254.5,38.5 Z"/></g>
<g><path style="opacity:0.004" fill="#000000" d="M 99.5,45.5 C 98.8333,44.1667 98.8333,44.1667 99.5,45.5 Z"/></g>
<g><path style="opacity:0.458" fill="#000000" d="M 280.5,48.5 C 286.873,48.2475 293.206,48.5808 299.5,49.5C 308.609,54.788 308.776,60.4546 300,66.5C 295.889,67.404 291.722,67.7373 287.5,67.5C 287.5,70.5 287.5,73.5 287.5,76.5C 284.833,76.5 282.167,76.5 279.5,76.5C 279.195,67.0833 279.528,57.75 280.5,48.5 Z M 287.5,55.5 C 290.833,55.5 294.167,55.5 297.5,55.5C 297.5,57.1667 297.5,58.8333 297.5,60.5C 294.167,60.5 290.833,60.5 287.5,60.5C 287.5,58.8333 287.5,57.1667 287.5,55.5 Z"/></g>
<g><path style="opacity:0.486" fill="#000000" d="M 307.5,76.5 C 307.5,67.1667 307.5,57.8333 307.5,48.5C 313.509,48.3338 319.509,48.5005 325.5,49C 332.539,50.5777 334.706,54.7444 332,61.5C 328.667,62.5 328.667,63.5 332,64.5C 332.392,68.5276 332.892,72.5276 333.5,76.5C 330.833,76.5 328.167,76.5 325.5,76.5C 325.817,73.4281 325.484,70.4281 324.5,67.5C 321.242,66.5827 317.909,66.2493 314.5,66.5C 314.5,69.8333 314.5,73.1667 314.5,76.5C 312.167,76.5 309.833,76.5 307.5,76.5 Z M 314.5,55.5 C 318.167,55.5 321.833,55.5 325.5,55.5C 325.5,57.1667 325.5,58.8333 325.5,60.5C 321.833,60.5 318.167,60.5 314.5,60.5C 314.5,58.8333 314.5,57.1667 314.5,55.5 Z"/></g>
<g><path style="opacity:0.496" fill="#000000" d="M 338.5,51.5 C 343.313,48.6455 348.98,47.8121 355.5,49C 364.282,53.2475 367.116,60.0808 364,69.5C 360.587,74.5449 355.754,77.2115 349.5,77.5C 337.448,76.6257 332.281,70.2923 334,58.5C 335.052,55.7808 336.552,53.4475 338.5,51.5 Z M 346.5,54.5 C 355.207,54.0365 358.707,58.0365 357,66.5C 354.089,70.2771 350.256,71.4437 345.5,70C 339.964,64.4037 340.297,59.237 346.5,54.5 Z"/></g>
<g><path style="opacity:0.456" fill="#000000" d="M 366.5,48.5 C 373.367,48.2612 380.2,48.5945 387,49.5C 391.918,52.0161 393.585,56.0161 392,61.5C 391.389,63.7501 390.056,65.4168 388,66.5C 387.086,65.3463 386.253,65.513 385.5,67C 381.848,67.4986 378.182,67.6653 374.5,67.5C 374.5,70.5 374.5,73.5 374.5,76.5C 371.833,76.5 369.167,76.5 366.5,76.5C 366.5,67.1667 366.5,57.8333 366.5,48.5 Z M 374.5,55.5 C 377.85,55.335 381.183,55.5017 384.5,56C 385.833,57.3333 385.833,58.6667 384.5,60C 381.183,60.4983 377.85,60.665 374.5,60.5C 374.5,58.8333 374.5,57.1667 374.5,55.5 Z"/></g>
<g><path style="opacity:0.45" fill="#000000" d="M 394.5,48.5 C 402.167,48.5 409.833,48.5 417.5,48.5C 417.5,50.8333 417.5,53.1667 417.5,55.5C 412.167,55.5 406.833,55.5 401.5,55.5C 401.343,56.8734 401.51,58.2068 402,59.5C 407.072,58.5286 412.238,58.1953 417.5,58.5C 417.808,60.924 417.474,63.2573 416.5,65.5C 411.636,66.8123 406.803,66.8123 402,65.5C 401.506,67.1341 401.34,68.8008 401.5,70.5C 406.844,70.334 412.177,70.5006 417.5,71C 418.833,72.6667 418.833,74.3333 417.5,76C 409.841,76.4997 402.174,76.6664 394.5,76.5C 394.5,67.1667 394.5,57.8333 394.5,48.5 Z"/></g>
<g><path style="opacity:0.442" fill="#000000" d="M 420.5,48.5 C 427.906,48.152 435.239,48.652 442.5,50C 444.97,53.4704 445.97,52.9704 445.5,48.5C 456.715,48.356 467.715,48.6893 478.5,49.5C 479.637,58.1182 479.804,66.7849 479,75.5C 476.619,76.435 474.119,76.7683 471.5,76.5C 471.5,69.5 471.5,62.5 471.5,55.5C 468.5,55.5 465.5,55.5 462.5,55.5C 462.5,62.5 462.5,69.5 462.5,76.5C 459.833,76.5 457.167,76.5 454.5,76.5C 454.5,69.5 454.5,62.5 454.5,55.5C 451.833,55.5 449.167,55.5 446.5,55.5C 446.854,58.9612 445.521,61.4612 442.5,63C 443.416,63.3742 444.25,63.8742 445,64.5C 445.501,68.5101 446.001,72.5101 446.5,76.5C 438.343,78.5143 435.676,75.681 438.5,68C 435.029,66.964 431.529,66.1307 428,65.5C 427.501,69.1516 427.335,72.8183 427.5,76.5C 425.167,76.5 422.833,76.5 420.5,76.5C 419.232,67.1553 419.232,57.8219 420.5,48.5 Z M 427.5,55.5 C 431.182,55.3347 434.848,55.5014 438.5,56C 437.62,57.3561 437.286,58.8561 437.5,60.5C 434.167,60.5 430.833,60.5 427.5,60.5C 427.5,58.8333 427.5,57.1667 427.5,55.5 Z"/></g>
<g><path style="opacity:0.445" fill="#000000" d="M 531.5,58.5 C 529.076,58.8076 526.743,58.4742 524.5,57.5C 521.06,53.7184 517.393,53.5517 513.5,57C 519.293,58.1988 524.96,59.8654 530.5,62C 534.145,65.5847 534.479,69.418 531.5,73.5C 522.813,79.2874 514.646,78.6208 507,71.5C 506.506,73.1341 506.34,74.8008 506.5,76.5C 498.167,76.5 489.833,76.5 481.5,76.5C 481.182,67.2494 481.515,58.0828 482.5,49C 490.167,48.3333 497.833,48.3333 505.5,49C 506.09,50.5095 506.756,52.0095 507.5,53.5C 510.436,49.5152 514.436,47.8485 519.5,48.5C 521.964,48.5899 524.13,49.2565 526,50.5C 526.414,50.0426 526.914,49.7093 527.5,49.5C 530.685,51.6827 532.018,54.6827 531.5,58.5 Z M 505.5,54.5 C 506.165,56.6979 506.832,59.0312 507.5,61.5C 508.167,62.1667 508.833,62.8333 509.5,63.5C 512.815,64.191 515.981,65.191 519,66.5C 522.51,65.1488 524.343,66.4822 524.5,70.5C 521.482,70.6646 518.482,70.498 515.5,70C 512.87,66.6755 509.536,65.8422 505.5,67.5C 505.833,68.1667 506.167,68.8333 506.5,69.5C 500.872,70.4954 495.206,70.8288 489.5,70.5C 489.34,68.8008 489.506,67.1341 490,65.5C 494.748,66.6349 499.581,66.8015 504.5,66C 505.435,63.6194 505.768,61.1194 505.5,58.5C 500.167,58.5 494.833,58.5 489.5,58.5C 489.5,57.5 489.5,56.5 489.5,55.5C 495.026,55.8214 500.36,55.4881 505.5,54.5 Z"/></g>
<g><path style="opacity:0.004" fill="#000000" d="M 338.5,51.5 C 337.833,50.1667 337.833,50.1667 338.5,51.5 Z"/></g>
<g><path style="opacity:0.004" fill="#000000" d="M 530.5,50.5 C 531.833,51.1667 531.833,51.1667 530.5,50.5 Z"/></g>
<g><path style="opacity:0.004" fill="#000000" d="M 531.5,58.5 C 532.833,59.1667 532.833,59.1667 531.5,58.5 Z"/></g>
<g><path style="opacity:0.004" fill="#000000" d="M 146.5,70.5 C 147.833,71.1667 147.833,71.1667 146.5,70.5 Z"/></g>
<g><path style="opacity:0.004" fill="#000000" d="M 531.5,73.5 C 532.833,74.1667 532.833,74.1667 531.5,73.5 Z"/></g>
<g><path style="opacity:0.004" fill="#000000" d="M 76.5,76.5 C 77.8333,77.1667 77.8333,77.1667 76.5,76.5 Z"/></g>
<g><path style="opacity:0.004" fill="#000000" d="M 307.5,76.5 C 306.833,77.1667 306.833,77.1667 307.5,76.5 Z"/></g>
<g><path style="opacity:0.004" fill="#000000" d="M 209.5,86.5 C 210.833,87.1667 210.833,87.1667 209.5,86.5 Z"/></g>
<g><path style="opacity:0.004" fill="#000000" d="M 35.5,89.5 C 34.8333,88.1667 34.8333,88.1667 35.5,89.5 Z"/></g>
<g><path style="opacity:0.004" fill="#000000" d="M 190.5,89.5 C 189.833,88.1667 189.833,88.1667 190.5,89.5 Z"/></g>
<g><path style="opacity:0.004" fill="#000000" d="M 23.5,98.5 C 22.8333,97.1667 22.8333,97.1667 23.5,98.5 Z"/></g>
<g><path style="opacity:0.004" fill="#000000" d="M 180.5,98.5 C 181.833,99.1667 181.833,99.1667 180.5,98.5 Z"/></g>
<g><path style="opacity:0.004" fill="#000000" d="M 174.5,108.5 C 173.833,107.167 173.833,107.167 174.5,108.5 Z"/></g>
<g><path style="opacity:0.004" fill="#000000" d="M 187.5,118.5 C 188.833,119.167 188.833,119.167 187.5,118.5 Z"/></g>
<g><path style="opacity:0.004" fill="#000000" d="M 13.5,121.5 C 12.8333,122.167 12.8333,122.167 13.5,121.5 Z"/></g>
</svg>
