<?xml version="1.0" encoding="UTF-8"?>
<!DOCTYPE svg PUBLIC "-//W3C//DTD SVG 1.1//EN" "http://www.w3.org/Graphics/SVG/1.1/DTD/svg11.dtd">
<svg xmlns="http://www.w3.org/2000/svg" version="1.1" width="1276px" height="377px" style="shape-rendering:geometricPrecision; text-rendering:geometricPrecision; image-rendering:optimizeQuality; fill-rule:evenodd; clip-rule:evenodd" xmlns:xlink="http://www.w3.org/1999/xlink">
<g><path style="opacity:1" fill="#fefefe" d="M -0.5,-0.5 C 424.833,-0.5 850.167,-0.5 1275.5,-0.5C 1275.5,125.167 1275.5,250.833 1275.5,376.5C 850.167,376.5 424.833,376.5 -0.5,376.5C -0.5,250.833 -0.5,125.167 -0.5,-0.5 Z"/></g>
<g><path style="opacity:1" fill="#060606" d="M 641.5,12.5 C 646.999,13 648.332,15.5 645.5,20C 640.502,21.3297 638.336,19.4964 639,14.5C 639.995,13.9341 640.828,13.2674 641.5,12.5 Z"/></g>
<g><path style="opacity:1" fill="#0d0d0d" d="M 868.5,12.5 C 873.984,12.4809 875.65,14.9809 873.5,20C 869.57,21.4211 866.903,20.2545 865.5,16.5C 866.524,15.1482 867.524,13.8149 868.5,12.5 Z"/></g>
<g><path style="opacity:1" fill="#050505" d="M 387.5,27.5 C 385.167,27.5 382.833,27.5 380.5,27.5C 380.5,36.8333 380.5,46.1667 380.5,55.5C 379.5,55.5 378.5,55.5 377.5,55.5C 377.5,46.1667 377.5,36.8333 377.5,27.5C 375.833,27.5 374.167,27.5 372.5,27.5C 373.552,25.744 375.219,25.0773 377.5,25.5C 375.611,16.3898 379.277,12.3898 388.5,13.5C 388.5,14.5 388.5,15.5 388.5,16.5C 381.667,15.6704 379,18.6704 380.5,25.5C 383.388,24.9898 385.721,25.6565 387.5,27.5 Z"/></g>
<g><path style="opacity:1" fill="#111111" d="M 143.5,14.5 C 154.309,14.1087 157.809,18.7754 154,28.5C 152.127,30.7089 149.96,32.5422 147.5,34C 150.676,38.0065 154.009,41.8398 157.5,45.5C 159.086,43.8273 159.753,41.8273 159.5,39.5C 160.5,39.5 161.5,39.5 162.5,39.5C 162.795,43.0765 161.795,46.2432 159.5,49C 161.405,50.8153 163.072,52.8153 164.5,55C 161.593,55.8545 159.26,55.0212 157.5,52.5C 150.606,56.4114 143.773,56.4114 137,52.5C 132.47,44.3688 134.303,38.0355 142.5,33.5C 135.6,26.533 135.934,20.1996 143.5,14.5 Z"/></g>
<g><path style="opacity:1" fill="#0b0b0b" d="M 421.5,14.5 C 429.422,13.0494 436.255,15.0494 442,20.5C 443.411,22.6504 444.245,24.9837 444.5,27.5C 441.813,27.6641 439.146,27.4974 436.5,27C 429.763,19.313 423.596,19.813 418,28.5C 417.174,33.5893 417.508,38.5893 419,43.5C 423.77,49.367 429.27,50.0337 435.5,45.5C 436.167,44.1667 436.833,42.8333 437.5,41.5C 434.572,40.5159 431.572,40.1826 428.5,40.5C 428.5,38.1667 428.5,35.8333 428.5,33.5C 434.167,33.5 439.833,33.5 445.5,33.5C 446.175,50.3242 438.175,57.4909 421.5,55C 415.693,53.1928 411.859,49.3595 410,43.5C 406.111,30.6503 409.945,20.9836 421.5,14.5 Z"/></g>
<g><path style="opacity:1" fill="#090909" d="M 746.5,14.5 C 754.187,12.996 760.687,14.996 766,20.5C 767.128,22.3453 767.628,24.3453 767.5,26.5C 762.813,27.2563 759.147,25.7563 756.5,22C 753.438,21.2585 750.438,21.4252 747.5,22.5C 744.717,25.342 745.05,27.842 748.5,30C 755.131,30.7617 760.964,33.2617 766,37.5C 769.955,45.9457 767.455,51.779 758.5,55C 753.833,55.6667 749.167,55.6667 744.5,55C 739.144,52.4907 736.477,48.324 736.5,42.5C 739.167,42.5 741.833,42.5 744.5,42.5C 745.041,46.8696 747.541,48.8696 752,48.5C 758.268,49.1735 760.434,46.6735 758.5,41C 752.869,38.875 747.203,36.875 741.5,35C 735.036,26.2426 736.703,19.4093 746.5,14.5 Z"/></g>
<g><path style="opacity:1" fill="#121212" d="M 26.5,14.5 C 28.451,14.2267 29.951,14.8934 31,16.5C 35.6417,29.4277 40.4751,42.2611 45.5,55C 44.0563,55.7805 42.723,55.6139 41.5,54.5C 40.26,50.9442 38.9267,47.4442 37.5,44C 31.4724,43.1697 25.4724,43.3364 19.5,44.5C 18.2347,47.7957 17.0681,51.129 16,54.5C 14.9887,55.3366 13.8221,55.67 12.5,55.5C 16.8804,41.7384 21.5471,28.0717 26.5,14.5 Z"/></g>
<g><path style="opacity:1" fill="#0f0f0f" d="M 116.5,39.5 C 112.702,38.5166 108.702,38.1832 104.5,38.5C 104.5,44.1667 104.5,49.8333 104.5,55.5C 103.5,55.5 102.5,55.5 101.5,55.5C 101.5,41.8333 101.5,28.1667 101.5,14.5C 108.704,13.945 115.704,14.7783 122.5,17C 129.212,24.9096 128.545,32.2429 120.5,39C 122.776,44.3862 125.443,49.5529 128.5,54.5C 127.167,55.8333 125.833,55.8333 124.5,54.5C 121.566,49.6318 118.9,44.6318 116.5,39.5 Z"/></g>
<g><path style="opacity:1" fill="#585858" d="M 188.5,15.5 C 183.167,15.5 177.833,15.5 172.5,15.5C 172.5,28.8333 172.5,42.1667 172.5,55.5C 171.504,42.0102 171.171,28.3435 171.5,14.5C 177.358,14.1778 183.025,14.5111 188.5,15.5 Z"/></g>
<g><path style="opacity:1" fill="#050505" d="M 188.5,15.5 C 195.309,16.8048 199.809,20.8048 202,27.5C 204.493,49.5032 194.66,58.8365 172.5,55.5C 172.5,42.1667 172.5,28.8333 172.5,15.5C 177.833,15.5 183.167,15.5 188.5,15.5 Z"/></g>
<g><path style="opacity:1" fill="#585858" d="M 471.5,15.5 C 465.167,15.5 458.833,15.5 452.5,15.5C 452.5,28.8333 452.5,42.1667 452.5,55.5C 451.504,42.0102 451.171,28.3435 451.5,14.5C 458.354,14.176 465.021,14.5093 471.5,15.5 Z"/></g>
<g><path style="opacity:1" fill="#030303" d="M 471.5,15.5 C 481.016,18.5311 484.182,24.8644 481,34.5C 479.5,37.3333 477.333,39.5 474.5,41C 469.915,42.2252 465.248,42.7252 460.5,42.5C 460.5,46.8333 460.5,51.1667 460.5,55.5C 457.833,55.5 455.167,55.5 452.5,55.5C 452.5,42.1667 452.5,28.8333 452.5,15.5C 458.833,15.5 465.167,15.5 471.5,15.5 Z"/></g>
<g><path style="opacity:1" fill="#020202" d="M 488.5,15.5 C 491.167,15.5 493.833,15.5 496.5,15.5C 496.172,26.6794 496.505,37.6794 497.5,48.5C 503.167,48.5 508.833,48.5 514.5,48.5C 514.5,50.8333 514.5,53.1667 514.5,55.5C 505.833,55.5 497.167,55.5 488.5,55.5C 488.5,42.1667 488.5,28.8333 488.5,15.5 Z"/></g>
<g><path style="opacity:1" fill="#919191" d="M 488.5,15.5 C 491.287,14.5233 494.287,14.19 497.5,14.5C 497.5,25.8333 497.5,37.1667 497.5,48.5C 496.505,37.6794 496.172,26.6794 496.5,15.5C 493.833,15.5 491.167,15.5 488.5,15.5 Z"/></g>
<g><path style="opacity:1" fill="#060606" d="M 533.5,14.5 C 542.473,13.7013 551.14,14.8679 559.5,18C 568.003,26.0488 569.836,35.5488 565,46.5C 561.676,51.8086 556.842,54.6419 550.5,55C 544.843,55.4994 539.176,55.6661 533.5,55.5C 533.5,41.8333 533.5,28.1667 533.5,14.5 Z"/></g>
<g><path style="opacity:1" fill="#060606" d="M 858.5,55.5 C 856.167,55.5 853.833,55.5 851.5,55.5C 851.66,53.8008 851.494,52.1341 851,50.5C 846.836,55.711 841.67,56.8777 835.5,54C 830.398,48.5259 828.565,42.0259 830,34.5C 834.177,24.1366 840.677,22.1366 849.5,28.5C 849.56,29.0431 849.893,29.3764 850.5,29.5C 851.493,24.8804 851.827,20.2137 851.5,15.5C 853.833,15.5 856.167,15.5 858.5,15.5C 858.5,28.8333 858.5,42.1667 858.5,55.5 Z"/></g>
<g><path style="opacity:1" fill="#575757" d="M 858.5,55.5 C 858.5,42.1667 858.5,28.8333 858.5,15.5C 856.167,15.5 853.833,15.5 851.5,15.5C 851.827,20.2137 851.493,24.8804 850.5,29.5C 849.893,29.3764 849.56,29.0431 849.5,28.5C 850.486,24.03 850.819,19.3633 850.5,14.5C 853.5,14.5 856.5,14.5 859.5,14.5C 859.829,28.3435 859.496,42.0102 858.5,55.5 Z"/></g>
<g><path style="opacity:1" fill="#f1f1f1" d="M 144.5,17.5 C 151.935,17.3662 154.102,20.6995 151,27.5C 149.027,28.6399 147.193,29.9733 145.5,31.5C 139.784,26.9014 139.451,22.2348 144.5,17.5 Z"/></g>
<g><path style="opacity:1" fill="#5b5b5b" d="M 784.5,24.5 C 783.539,22.7354 783.205,20.7354 783.5,18.5C 781.167,18.5 778.833,18.5 776.5,18.5C 776.795,20.7354 776.461,22.7354 775.5,24.5C 775.5,22.1667 775.5,19.8333 775.5,17.5C 778.5,17.5 781.5,17.5 784.5,17.5C 784.5,19.8333 784.5,22.1667 784.5,24.5 Z"/></g>
<g><path style="opacity:1" fill="#9a9a9a" d="M 115.5,18.5 C 112.167,18.5 108.833,18.5 105.5,18.5C 105.5,24.1667 105.5,29.8333 105.5,35.5C 104.51,29.69 104.177,23.69 104.5,17.5C 108.371,17.185 112.038,17.5184 115.5,18.5 Z"/></g>
<g><path style="opacity:1" fill="#fbfbfb" d="M 115.5,18.5 C 117.936,18.317 120.103,18.9837 122,20.5C 124.649,26.0454 123.815,30.8788 119.5,35C 114.845,35.4992 110.179,35.6658 105.5,35.5C 105.5,29.8333 105.5,24.1667 105.5,18.5C 108.833,18.5 112.167,18.5 115.5,18.5 Z"/></g>
<g><path style="opacity:1" fill="#f9f9f9" d="M 175.5,17.5 C 194.882,15.9433 202.382,24.6099 198,43.5C 195.774,47.8684 192.274,50.7017 187.5,52C 183.514,52.4988 179.514,52.6655 175.5,52.5C 175.5,40.8333 175.5,29.1667 175.5,17.5 Z"/></g>
<g><path style="opacity:1" fill="#0e0e0e" d="M 784.5,24.5 C 785.919,25.4511 787.585,25.7845 789.5,25.5C 789.5,27.1667 789.5,28.8333 789.5,30.5C 787.585,30.2155 785.919,30.5489 784.5,31.5C 784.334,37.1764 784.501,42.8431 785,48.5C 786.356,49.3802 787.856,49.7135 789.5,49.5C 789.833,51.5 790.167,53.5 790.5,55.5C 787.15,55.665 783.817,55.4983 780.5,55C 779.069,54.5348 777.903,53.7014 777,52.5C 775.616,45.5888 775.116,38.5888 775.5,31.5C 774.167,31.5 772.833,31.5 771.5,31.5C 771.5,29.5 771.5,27.5 771.5,25.5C 773.099,25.7678 774.432,25.4345 775.5,24.5C 776.461,22.7354 776.795,20.7354 776.5,18.5C 778.833,18.5 781.167,18.5 783.5,18.5C 783.205,20.7354 783.539,22.7354 784.5,24.5 Z"/></g>
<g><path style="opacity:1" fill="#ebebeb" d="M 28.5,19.5 C 31.2599,26.2041 33.9265,33.0374 36.5,40C 31.5111,40.4993 26.5111,40.6659 21.5,40.5C 23.2382,33.2855 25.5715,26.2855 28.5,19.5 Z"/></g>
<g><path style="opacity:1" fill="#f7f7f7" d="M 460.5,21.5 C 464.308,21.1632 467.974,21.6632 471.5,23C 474.089,26.7357 474.089,30.4024 471.5,34C 467.974,35.3368 464.308,35.8368 460.5,35.5C 460.5,30.8333 460.5,26.1667 460.5,21.5 Z"/></g>
<g><path style="opacity:1" fill="#999999" d="M 542.5,22.5 C 542.5,30.8333 542.5,39.1667 542.5,47.5C 545.5,47.5 548.5,47.5 551.5,47.5C 548.375,48.4794 545.042,48.8128 541.5,48.5C 541.174,39.6506 541.507,30.9839 542.5,22.5 Z"/></g>
<g><path style="opacity:1" fill="#f9f9f9" d="M 542.5,22.5 C 555.58,20.747 561.08,26.4136 559,39.5C 558.354,43.9772 555.854,46.6438 551.5,47.5C 548.5,47.5 545.5,47.5 542.5,47.5C 542.5,39.1667 542.5,30.8333 542.5,22.5 Z"/></g>
<g><path style="opacity:1" fill="#0d0d0d" d="M 52.5,24.5 C 53.5,24.5 54.5,24.5 55.5,24.5C 55.3398,26.1992 55.5065,27.8659 56,29.5C 59.666,24.2401 64.4994,23.0735 70.5,26C 71.3333,26.8333 72.1667,27.6667 73,28.5C 74.4432,37.3921 74.9432,46.3921 74.5,55.5C 73.5,55.5 72.5,55.5 71.5,55.5C 71.6664,47.8261 71.4997,40.1594 71,32.5C 68.7742,28.1392 65.2742,26.6392 60.5,28C 58.4299,28.9476 56.9299,30.4476 56,32.5C 55.5003,40.1594 55.3336,47.8261 55.5,55.5C 54.5,55.5 53.5,55.5 52.5,55.5C 52.5,45.1667 52.5,34.8333 52.5,24.5 Z"/></g>
<g><path style="opacity:1" fill="#0f0f0f" d="M 233.5,24.5 C 236.91,24.4571 240.243,24.9571 243.5,26C 245.667,26.8333 247.167,28.3333 248,30.5C 248.5,38.8267 248.666,47.16 248.5,55.5C 247.5,55.5 246.5,55.5 245.5,55.5C 245.995,49.8143 244.995,49.3143 242.5,54C 236.938,57.6008 231.771,57.1008 227,52.5C 224.53,48.1702 225.03,44.3368 228.5,41C 233.841,38.7905 239.341,37.2905 245,36.5C 245.175,29.3532 241.675,26.5199 234.5,28C 232.376,29.1217 230.543,30.6217 229,32.5C 228.25,31.8742 227.416,31.3742 226.5,31C 228.077,27.9197 230.41,25.753 233.5,24.5 Z"/></g>
<g><path style="opacity:1" fill="#080808" d="M 278.5,25.5 C 279.943,26.3351 280.943,27.6684 281.5,29.5C 282.107,29.3764 282.44,29.0431 282.5,28.5C 285.68,24.2963 289.68,23.463 294.5,26C 295.685,27.353 297.019,28.5197 298.5,29.5C 304.822,22.5301 310.655,22.8634 316,30.5C 316.5,38.8267 316.666,47.16 316.5,55.5C 315.5,55.5 314.5,55.5 313.5,55.5C 313.666,47.8261 313.5,40.1594 313,32.5C 310.447,27.3737 306.614,26.2071 301.5,29C 300.54,30.4194 299.707,31.9194 299,33.5C 298.5,40.8258 298.334,48.1591 298.5,55.5C 297.5,55.5 296.5,55.5 295.5,55.5C 295.666,47.4931 295.5,39.4931 295,31.5C 292.369,27.3715 288.869,26.5381 284.5,29C 283.299,29.9025 282.465,31.0692 282,32.5C 281.5,40.1594 281.334,47.8261 281.5,55.5C 280.5,55.5 279.5,55.5 278.5,55.5C 278.5,45.5 278.5,35.5 278.5,25.5 Z"/></g>
<g><path style="opacity:1" fill="#131313" d="M 349.5,24.5 C 362.878,24.3856 368.712,31.0523 367,44.5C 363.591,54.7855 356.758,57.9521 346.5,54C 340.014,47.0196 338.847,39.1863 343,30.5C 345.063,28.2659 347.229,26.2659 349.5,24.5 Z"/></g>
<g><path style="opacity:1" fill="#080808" d="M 582.5,24.5 C 595.366,23.7011 601.7,29.7011 601.5,42.5C 594.5,42.5 587.5,42.5 580.5,42.5C 581.334,49.1045 585.001,51.2711 591.5,49C 594.428,46.382 597.761,45.882 601.5,47.5C 596.924,55.0847 590.258,57.5847 581.5,55C 573.933,50.6892 571.1,44.1892 573,35.5C 574.599,30.406 577.766,26.7393 582.5,24.5 Z"/></g>
<g><path style="opacity:1" fill="#080808" d="M 614.5,24.5 C 620.759,23.9767 626.259,25.6434 631,29.5C 633.286,32.3773 632.453,33.7107 628.5,33.5C 625.32,32.9732 622.32,31.9732 619.5,30.5C 613.409,31.8403 613.075,34.0069 618.5,37C 622.845,37.0239 626.845,38.1906 630.5,40.5C 634.783,47.1486 633.117,51.982 625.5,55C 621.167,55.6667 616.833,55.6667 612.5,55C 608.724,53.395 606.724,50.5616 606.5,46.5C 609.247,46.1866 611.914,46.52 614.5,47.5C 617.3,50.9883 620.466,51.3217 624,48.5C 624.711,46.6332 624.211,45.1332 622.5,44C 619.167,43.3333 615.833,42.6667 612.5,42C 606.878,39.2653 605.378,35.0986 608,29.5C 609.965,27.4497 612.132,25.783 614.5,24.5 Z"/></g>
<g><path style="opacity:1" fill="#080808" d="M 674.5,25.5 C 676.833,25.5 679.167,25.5 681.5,25.5C 681.5,36.5 681.5,47.5 681.5,58.5C 680.857,61.9875 678.857,64.4875 675.5,66C 669.325,68.2559 663.325,67.9225 657.5,65C 651.722,59.344 653.055,57.344 661.5,59C 664.378,61.4496 667.712,62.1163 671.5,61C 672.823,60.1841 673.489,59.0174 673.5,57.5C 674.634,55.0336 674.801,52.367 674,49.5C 673.283,50.0442 672.783,50.7109 672.5,51.5C 671.942,52.7899 670.942,53.6232 669.5,54C 657.979,56.2208 652.312,51.3874 652.5,39.5C 653.41,26.7251 659.743,22.5584 671.5,27C 673.995,31.6857 674.995,31.1857 674.5,25.5 Z"/></g>
<g><path style="opacity:1" fill="#878787" d="M 689.5,25.5 C 691.948,24.5269 694.615,24.1936 697.5,24.5C 697.216,26.4147 697.549,28.0813 698.5,29.5C 698.44,30.0431 698.107,30.3764 697.5,30.5C 696.548,28.9547 696.215,27.288 696.5,25.5C 694.167,25.5 691.833,25.5 689.5,25.5 Z"/></g>
<g><path style="opacity:1" fill="#0a0a0a" d="M 689.5,25.5 C 691.833,25.5 694.167,25.5 696.5,25.5C 696.215,27.288 696.548,28.9547 697.5,30.5C 698.107,30.3764 698.44,30.0431 698.5,29.5C 703.602,23.4192 709.102,23.0858 715,28.5C 715.862,30.087 716.529,31.7536 717,33.5C 717.5,40.8258 717.666,48.1591 717.5,55.5C 714.5,55.5 711.5,55.5 708.5,55.5C 708.666,48.1591 708.5,40.8258 708,33.5C 704.381,30.6572 701.048,30.9905 698,34.5C 697.5,41.4921 697.334,48.4921 697.5,55.5C 694.833,55.5 692.167,55.5 689.5,55.5C 689.5,45.5 689.5,35.5 689.5,25.5 Z"/></g>
<g><path style="opacity:1" fill="#040404" d="M 891.5,24.5 C 907.106,25.3489 912.606,33.3489 908,48.5C 906.437,51.7284 903.937,53.8951 900.5,55C 884.39,56.8819 877.89,49.7152 881,33.5C 883.489,29.1675 886.989,26.1675 891.5,24.5 Z"/></g>
<g><path style="opacity:1" fill="#050505" d="M 258.5,25.5 C 259.943,26.3351 260.943,27.6684 261.5,29.5C 262.107,29.3764 262.44,29.0431 262.5,28.5C 264.584,25.2942 267.584,23.9609 271.5,24.5C 271.5,25.5 271.5,26.5 271.5,27.5C 267.378,27.4763 264.212,29.143 262,32.5C 261.5,40.1594 261.334,47.8261 261.5,55.5C 260.5,55.5 259.5,55.5 258.5,55.5C 258.5,45.5 258.5,35.5 258.5,25.5 Z"/></g>
<g><path style="opacity:1" fill="#6e6e6e" d="M 258.5,25.5 C 259.209,24.596 260.209,24.2627 261.5,24.5C 261.232,26.099 261.566,27.4324 262.5,28.5C 262.44,29.0431 262.107,29.3764 261.5,29.5C 260.943,27.6684 259.943,26.3351 258.5,25.5 Z"/></g>
<g><path style="opacity:1" fill="#727272" d="M 278.5,25.5 C 279.209,24.596 280.209,24.2627 281.5,24.5C 281.232,26.099 281.566,27.4324 282.5,28.5C 282.44,29.0431 282.107,29.3764 281.5,29.5C 280.943,27.6684 279.943,26.3351 278.5,25.5 Z"/></g>
<g><path style="opacity:1" fill="#000000" d="M 638.5,25.5 C 641.167,25.5 643.833,25.5 646.5,25.5C 646.5,35.5 646.5,45.5 646.5,55.5C 643.833,55.5 641.167,55.5 638.5,55.5C 638.5,45.5 638.5,35.5 638.5,25.5 Z"/></g>
<g><path style="opacity:1" fill="#616161" d="M 674.5,25.5 C 676.948,24.5269 679.615,24.1936 682.5,24.5C 682.828,36.0123 682.495,47.3456 681.5,58.5C 681.5,47.5 681.5,36.5 681.5,25.5C 679.167,25.5 676.833,25.5 674.5,25.5 Z"/></g>
<g><path style="opacity:1" fill="#030303" d="M 814.5,45.5 C 815.491,39.021 815.824,32.3543 815.5,25.5C 818.167,25.5 820.833,25.5 823.5,25.5C 823.5,35.5 823.5,45.5 823.5,55.5C 820.833,55.5 818.167,55.5 815.5,55.5C 816.093,50.281 815.093,49.6144 812.5,53.5C 806.353,56.9254 801.187,55.9254 797,50.5C 795.594,42.2508 795.094,33.9174 795.5,25.5C 798.167,25.5 800.833,25.5 803.5,25.5C 803.116,32.5888 803.616,39.5888 805,46.5C 808.579,49.373 811.745,49.0397 814.5,45.5 Z"/></g>
<g><path style="opacity:1" fill="#cccccc" d="M 823.5,55.5 C 823.5,45.5 823.5,35.5 823.5,25.5C 820.833,25.5 818.167,25.5 815.5,25.5C 815.824,32.3543 815.491,39.021 814.5,45.5C 814.5,38.5 814.5,31.5 814.5,24.5C 817.833,24.5 821.167,24.5 824.5,24.5C 824.828,35.0135 824.494,45.3468 823.5,55.5 Z"/></g>
<g><path style="opacity:1" fill="#000000" d="M 866.5,25.5 C 869.167,25.5 871.833,25.5 874.5,25.5C 874.5,35.5 874.5,45.5 874.5,55.5C 871.833,55.5 869.167,55.5 866.5,55.5C 866.5,45.5 866.5,35.5 866.5,25.5 Z"/></g>
<g><path style="opacity:1" fill="#f6f6f6" d="M 350.5,27.5 C 356.386,26.8576 360.552,29.1909 363,34.5C 363.667,38.5 363.667,42.5 363,46.5C 359.344,52.6657 354.178,54.1657 347.5,51C 341.505,42.1239 342.505,34.2906 350.5,27.5 Z"/></g>
<g><path style="opacity:1" fill="#c8c8c8" d="M 372.5,27.5 C 374.167,27.5 375.833,27.5 377.5,27.5C 377.5,36.8333 377.5,46.1667 377.5,55.5C 376.507,46.6822 376.173,37.6822 376.5,28.5C 374.901,28.7678 373.568,28.4345 372.5,27.5 Z"/></g>
<g><path style="opacity:1" fill="#c7c7c7" d="M 387.5,27.5 C 385.735,28.4614 383.735,28.7947 381.5,28.5C 381.827,37.6822 381.493,46.6822 380.5,55.5C 380.5,46.1667 380.5,36.8333 380.5,27.5C 382.833,27.5 385.167,27.5 387.5,27.5 Z"/></g>
<g><path style="opacity:1" fill="#6f6f6f" d="M 789.5,25.5 C 790.461,27.2646 790.795,29.2646 790.5,31.5C 788.5,31.5 786.5,31.5 784.5,31.5C 785.919,30.5489 787.585,30.2155 789.5,30.5C 789.5,28.8333 789.5,27.1667 789.5,25.5 Z"/></g>
<g><path style="opacity:1" fill="#e9e9e9" d="M 585.5,30.5 C 590.713,30.0867 593.38,32.42 593.5,37.5C 589.167,37.5 584.833,37.5 580.5,37.5C 581.002,34.3315 582.669,31.9981 585.5,30.5 Z"/></g>
<g><path style="opacity:1" fill="#f5f5f5" d="M 664.5,31.5 C 672.587,31.4321 675.754,35.4321 674,43.5C 670.868,49.2443 666.868,49.911 662,45.5C 660.718,40.2948 661.551,35.6282 664.5,31.5 Z"/></g>
<g><path style="opacity:1" fill="#f4f4f4" d="M 841.5,31.5 C 849.587,31.4321 852.754,35.4321 851,43.5C 847.861,50.4588 843.861,51.1255 839,45.5C 837.718,40.2948 838.551,35.6282 841.5,31.5 Z"/></g>
<g><path style="opacity:1" fill="#f3f3f3" d="M 893.5,30.5 C 899.204,31.0418 901.871,34.2085 901.5,40C 900.588,50.0473 896.421,51.8806 889,45.5C 888.333,42.1667 888.333,38.8333 889,35.5C 890.025,33.313 891.525,31.6464 893.5,30.5 Z"/></g>
<g><path style="opacity:1" fill="#f5f5f5" d="M 143.5,36.5 C 144.239,36.369 144.906,36.5357 145.5,37C 148.833,41 152.167,45 155.5,49C 150.71,53.0133 145.543,53.5133 140,50.5C 137.929,48.5453 137.262,46.212 138,43.5C 139.666,41.0043 141.5,38.671 143.5,36.5 Z"/></g>
<g><path style="opacity:1" fill="#9a9a9a" d="M 116.5,39.5 C 112.833,39.5 109.167,39.5 105.5,39.5C 105.821,45.0262 105.488,50.3595 104.5,55.5C 104.5,49.8333 104.5,44.1667 104.5,38.5C 108.702,38.1832 112.702,38.5166 116.5,39.5 Z"/></g>
<g><path style="opacity:1" fill="#ededed" d="M 242.5,39.5 C 243.5,39.5 244.5,39.5 245.5,39.5C 246.514,47.1676 243.347,51.8343 236,53.5C 231.054,52.8994 228.721,50.2327 229,45.5C 229.5,43.6667 230.667,42.5 232.5,42C 235.991,41.262 239.325,40.4287 242.5,39.5 Z"/></g>
<g><path style="opacity:1" fill="#909090" d="M 673.5,57.5 C 673.795,55.2646 673.461,53.2646 672.5,51.5C 672.783,50.7109 673.283,50.0442 674,49.5C 674.801,52.367 674.634,55.0336 673.5,57.5 Z"/></g>
<g><path style="opacity:1" fill="#424242" d="M 186.5,116.5 C 128.5,116.5 70.5,116.5 12.5,116.5C 12.5,124.5 12.5,132.5 12.5,140.5C 11.5073,132.35 11.1739,124.017 11.5,115.5C 70.0024,115.168 128.336,115.501 186.5,116.5 Z"/></g>
<g><path style="opacity:1" fill="#161716" d="M 186.5,116.5 C 186.5,124.5 186.5,132.5 186.5,140.5C 162.167,140.5 137.833,140.5 113.5,140.5C 113.5,209.833 113.5,279.167 113.5,348.5C 104.167,348.5 94.8333,348.5 85.5,348.5C 85.5,279.167 85.5,209.833 85.5,140.5C 61.1667,140.5 36.8333,140.5 12.5,140.5C 12.5,132.5 12.5,124.5 12.5,116.5C 70.5,116.5 128.5,116.5 186.5,116.5 Z"/></g>
<g><path style="opacity:1" fill="#252525" d="M 618.5,116.5 C 609.833,116.5 601.167,116.5 592.5,116.5C 592.5,193.833 592.5,271.167 592.5,348.5C 591.501,271.002 591.167,193.335 591.5,115.5C 600.682,115.173 609.682,115.507 618.5,116.5 Z"/></g>
<g><path style="opacity:1" fill="#181818" d="M 618.5,116.5 C 618.5,144.833 618.5,173.167 618.5,201.5C 619.675,201.719 620.675,201.386 621.5,200.5C 629.669,183.842 643.002,174.342 661.5,172C 683.473,168.919 702.307,175.085 718,190.5C 725.466,200.225 729.799,211.225 731,223.5C 731.5,265.165 731.667,306.832 731.5,348.5C 722.5,348.5 713.5,348.5 704.5,348.5C 704.667,307.832 704.5,267.165 704,226.5C 698.568,206.077 685.235,195.744 664,195.5C 641.557,196.292 626.89,207.292 620,228.5C 618.529,268.46 618.029,308.46 618.5,348.5C 609.833,348.5 601.167,348.5 592.5,348.5C 592.5,271.167 592.5,193.833 592.5,116.5C 601.167,116.5 609.833,116.5 618.5,116.5 Z"/></g>
<g><path style="opacity:1" fill="#c3c3c3" d="M 12.5,140.5 C 36.8333,140.5 61.1667,140.5 85.5,140.5C 85.5,209.833 85.5,279.167 85.5,348.5C 84.5008,279.669 84.1675,210.669 84.5,141.5C 60.3275,141.831 36.3275,141.498 12.5,140.5 Z"/></g>
<g><path style="opacity:1" fill="#181818" d="M 856.5,143.5 C 882.695,140.803 907.695,144.969 931.5,156C 934.667,157.833 937.167,160.333 939,163.5C 941.257,173.278 940.924,182.945 938,192.5C 937.196,193.804 936.029,194.471 934.5,194.5C 916.138,183.545 896.305,177.545 875,176.5C 842.293,177.03 821.293,193.03 812,224.5C 808.047,243.108 809.047,261.441 815,279.5C 822.823,300.323 837.656,312.823 859.5,317C 868.874,317.776 878.207,317.442 887.5,316C 891.232,315.026 894.732,313.526 898,311.5C 898.5,295.837 898.667,280.17 898.5,264.5C 885.163,264.667 871.829,264.5 858.5,264C 855.244,259.388 853.911,254.221 854.5,248.5C 853.799,243.047 855.132,238.213 858.5,234C 882.833,233.333 907.167,233.333 931.5,234C 934.913,235.077 937.413,237.244 939,240.5C 939.667,271.167 939.667,301.833 939,332.5C 938.496,336.02 936.663,338.52 933.5,340C 898.31,353.271 862.644,354.938 826.5,345C 793.954,331.104 774.787,306.604 769,271.5C 763.374,237.996 770.04,207.329 789,179.5C 806.674,158.414 829.174,146.414 856.5,143.5 Z"/></g>
<g><path style="opacity:1" fill="#171717" d="M 1160.5,145.5 C 1169.88,145.224 1179.21,145.724 1188.5,147C 1190.33,147.273 1191.83,148.107 1193,149.5C 1193.5,204.499 1193.67,259.499 1193.5,314.5C 1215.5,314.333 1237.5,314.5 1259.5,315C 1261.77,316.558 1262.93,318.724 1263,321.5C 1263.67,327.5 1263.67,333.5 1263,339.5C 1262.94,342.822 1261.77,345.656 1259.5,348C 1226.5,348.667 1193.5,348.667 1160.5,348C 1156.23,346.73 1153.73,343.896 1153,339.5C 1152.33,276.5 1152.33,213.5 1153,150.5C 1153.37,149.584 1153.87,148.75 1154.5,148C 1156.61,147.155 1158.61,146.322 1160.5,145.5 Z"/></g>
<g><path style="opacity:1" fill="#171717" d="M 1050.5,277.5 C 1041.17,277.5 1031.83,277.5 1022.5,277.5C 1022.5,299.833 1022.5,322.167 1022.5,344.5C 1021.66,346.173 1020.32,347.34 1018.5,348C 1009.23,349.553 999.895,349.886 990.5,349C 987.542,348.771 985.042,347.604 983,345.5C 982.333,281.833 982.333,218.167 983,154.5C 984.833,151.333 987.333,148.833 990.5,147C 1014.17,146.333 1037.83,146.333 1061.5,147C 1108.38,154.569 1127.21,181.735 1118,228.5C 1111.09,253.073 1095.26,268.573 1070.5,275C 1063.91,276.482 1057.24,277.316 1050.5,277.5 Z"/></g>
<g><path style="opacity:1" fill="#181818" d="M 287.5,171.5 C 340.113,170.944 368.279,196.944 372,249.5C 372.5,256.492 372.666,263.492 372.5,270.5C 330.167,270.5 287.833,270.5 245.5,270.5C 248.352,311.859 270.352,330.692 311.5,327C 326.886,324.432 337.219,315.932 342.5,301.5C 351.692,303.048 360.692,305.381 369.5,308.5C 359.108,333.373 340.441,347.539 313.5,351C 264.366,356.165 233.533,334.998 221,287.5C 213.987,255.569 219.654,226.235 238,199.5C 250.911,183.795 267.411,174.462 287.5,171.5 Z"/></g>
<g><path style="opacity:1" fill="#181818" d="M 472.5,171.5 C 496.54,169.461 517.707,176.128 536,191.5C 545.264,201.363 550.764,213.03 552.5,226.5C 543.5,226.5 534.5,226.5 525.5,226.5C 521.535,211.699 512.202,201.865 497.5,197C 461.962,192.709 440.462,208.209 433,243.5C 429.331,266.16 432.997,287.493 444,307.5C 458.193,326.009 476.693,332.176 499.5,326C 512.831,321.171 521.497,312.004 525.5,298.5C 534.475,297.502 543.475,297.168 552.5,297.5C 546.322,327.178 528.322,345.011 498.5,351C 444.566,355.082 413.733,330.248 406,276.5C 402.399,249.248 408.066,224.248 423,201.5C 435.783,185.199 452.283,175.199 472.5,171.5 Z"/></g>
<g><path style="opacity:1" fill="#fefefe" d="M 1023.5,178.5 C 1033.51,178.334 1043.51,178.5 1053.5,179C 1069.5,182.821 1077.5,192.988 1077.5,209.5C 1078.23,228.575 1069.56,240.742 1051.5,246C 1042.17,246.5 1032.84,246.666 1023.5,246.5C 1023.5,223.833 1023.5,201.167 1023.5,178.5 Z"/></g>
<g><path style="opacity:1" fill="#fafafa" d="M 288.5,195.5 C 324.208,194.543 342.875,211.876 344.5,247.5C 311.5,247.5 278.5,247.5 245.5,247.5C 248.103,220.214 262.436,202.881 288.5,195.5 Z"/></g>
<g><path style="opacity:1" fill="#4b4b4b" d="M 1050.5,277.5 C 1041.68,278.493 1032.68,278.827 1023.5,278.5C 1023.83,300.673 1023.5,322.673 1022.5,344.5C 1022.5,322.167 1022.5,299.833 1022.5,277.5C 1031.83,277.5 1041.17,277.5 1050.5,277.5 Z"/></g>
</svg>
